<svg width="51" height="50" viewBox="0 0 51 50" fill="none" xmlns="http://www.w3.org/2000/svg">
<rect x="0.5" width="50" height="50" rx="15" fill="#CF2F8F"/>
<g clip-path="url(#clip0_101_479)">
<path d="M29.5 18.25C29.5 18.475 29.5 18.775 29.5 19C29.5 21.475 27.475 23.5 25 23.5C22.525 23.5 20.5 21.475 20.5 19C20.5 18.775 20.5 18.55 20.575 18.325L20.875 18.1C21.55 17.725 23.575 16.75 25 16.75C26.05 16.75 27.1 17.275 28 17.65C28.6 17.95 29.05 18.1 29.5 18.25Z" fill="#F2EEE1"/>
<path d="M35.5 31.525C35.65 31.9 35.575 32.35 35.35 32.725C34.75 33.625 32.95 34.375 31.825 34.675V34.75C31.825 36.7 27.625 37 25.075 37C23.425 37 21.925 36.85 20.8 36.625C20.125 36.475 18.25 36.1 18.25 34.75V34.675C17.125 34.375 15.325 33.625 14.725 32.725C14.425 32.35 14.425 31.9 14.575 31.45L15.55 28.525C15.925 27.4 16.675 26.425 17.575 25.675L20.875 23.35C19.75 22.3 19 20.725 19 19C19 18.325 19.15 17.65 19.3 17.05C19.15 16.45 19.15 15.85 19.375 15.25C19.975 13.9 21.55 13 23.5 13H31.6L31.75 13.6C31.825 13.975 32.5 16.825 30.925 18.025C31 18.325 31 18.625 31 19C31 20.725 30.25 22.3 29.125 23.35L32.425 25.675C33.4 26.425 34.15 27.4 34.525 28.525L35.5 31.525ZM34.075 31.9L33.1 28.975C32.8 28.15 32.275 27.4 31.6 26.875L30.7 26.275L27.775 28.6C27.625 28.675 27.475 28.75 27.25 28.75H27.175C27.025 28.75 26.875 28.675 26.725 28.525L25.75 29.5L27.25 33.25L25.6 35.5C28.3 35.425 29.875 34.975 30.25 34.675L29.575 31.15C29.5 30.775 29.725 30.325 30.175 30.25C30.625 30.175 31 30.4 31.075 30.85L31.525 33.175C32.35 32.95 33.775 32.35 34.075 31.9ZM30.025 16.825C30.55 16.525 30.55 15.4 30.4 14.5H23.5C22 14.5 21.025 15.175 20.725 15.85C20.65 16.075 20.65 16.3 20.725 16.525C21.7 16.075 23.5 15.25 25 15.25C26.35 15.25 27.625 15.85 28.675 16.3C29.125 16.525 29.8 16.825 30.025 16.825ZM29.5 19C29.5 18.775 29.5 18.475 29.425 18.25C28.975 18.1 28.525 17.95 28 17.65C27.1 17.275 26.05 16.75 25 16.75C23.575 16.75 21.55 17.725 20.875 18.175L20.575 18.325C20.575 18.55 20.5 18.775 20.5 19C20.5 21.475 22.525 23.5 25 23.5C27.475 23.5 29.5 21.475 29.5 19ZM27.4 26.95L29.35 25.375L27.85 24.325C27.25 24.625 26.575 24.85 25.9 24.925L27.4 26.95ZM24.475 35.5L22.75 33.25L24.25 29.5L23.275 28.525C23.125 28.675 22.975 28.75 22.825 28.75C22.6 28.75 22.375 28.675 22.225 28.525L19.75 26.05L18.475 26.95C17.8 27.475 17.275 28.225 16.975 29.05L16 31.9C16.3 32.275 17.725 32.95 18.55 33.175L19 30.85C19.075 30.475 19.45 30.175 19.9 30.25C20.275 30.325 20.575 30.7 20.5 31.15L19.825 34.675C20.2 34.975 21.775 35.425 24.475 35.5ZM22.675 26.875L24.1 24.925C23.425 24.85 22.75 24.625 22.15 24.325L20.95 25.15L22.675 26.875Z" fill="#F883BB"/>
<path d="M33.1 29.05L34.075 31.975C33.775 32.425 32.35 33.025 31.525 33.25L31 30.85C30.925 30.475 30.55 30.175 30.1 30.25C29.725 30.325 29.425 30.7 29.5 31.15L30.175 34.675C29.8 34.975 28.225 35.425 25.525 35.5L27.175 33.25L25.675 29.5L26.65 28.525C26.725 28.6 26.875 28.75 27.1 28.75H27.175C27.325 28.75 27.55 28.675 27.625 28.6L30.55 26.275L31.45 26.875C32.275 27.4 32.8 28.15 33.1 29.05Z" fill="#FFDDF1"/>
<path d="M30.4 14.5C30.55 15.325 30.55 16.525 30.025 16.825C29.8 16.825 29.2 16.525 28.675 16.3C27.7 15.85 26.425 15.25 25 15.25C23.5 15.25 21.7 16.075 20.725 16.525C20.65 16.3 20.65 16.075 20.725 15.85C21.025 15.175 22 14.5 23.5 14.5H30.4Z" fill="#FFDDF1"/>
<path d="M29.35 25.375L27.4 26.95L25.9 24.925C26.575 24.85 27.25 24.625 27.85 24.325L29.35 25.375Z" fill="#FFDDF1"/>
<path d="M22.75 33.25L24.4 35.5C21.7 35.425 20.125 34.975 19.75 34.675L20.5 31.15C20.575 30.775 20.35 30.325 19.9 30.25C19.525 30.175 19.075 30.4 19 30.85L18.55 33.175C17.725 32.95 16.3 32.35 16 31.9L16.975 28.975C17.275 28.15 17.8 27.4 18.475 26.875L19.75 26.05L22.225 28.525C22.375 28.675 22.6 28.75 22.825 28.75C22.975 28.75 23.2 28.675 23.275 28.525L24.25 29.5L22.75 33.25Z" fill="white"/>
<path d="M24.175 24.925L22.75 26.875L21.025 25.15L22.225 24.325C22.825 24.625 23.425 24.85 24.175 24.925Z" fill="white"/>
</g>
<defs>
<clipPath id="clip0_101_479">
<rect width="21.075" height="24" fill="white" transform="translate(14.5 13)"/>
</clipPath>
</defs>
</svg>
