<svg width="51" height="50" viewBox="0 0 51 50" fill="none" xmlns="http://www.w3.org/2000/svg">
<rect x="0.5" width="50" height="50" rx="15" fill="#DA47FF"/>
<g clip-path="url(#clip0_101_396)">
<path d="M32.3256 37H26.5L15.8954 33.1628V15.8954C15.8954 15.2326 16.4186 14.7093 17.0814 14.7093H33.4768C34.1395 14.7093 34.6628 15.2326 34.6628 15.8954V34.1395C34.6628 35.5 33.7558 36.6512 32.4302 36.9651L32.3256 37ZM26.7093 35.8488H32.1861C32.9186 35.6395 33.4768 34.9419 33.4768 34.1744V15.9302H17.0814V32.3605L26.7093 35.8488Z" fill="#BC0FE8"/>
<path d="M26.7093 35.8488H32.186C32.9186 35.6395 33.4767 34.9419 33.4767 34.1744V15.9302H17.0814V32.3605L26.7093 35.8488Z" fill="white"/>
<path d="M38.5202 29.9381C40.1686 28.2897 40.1686 25.6172 38.5202 23.9688C36.8719 22.3205 34.1994 22.3205 32.551 23.9688C30.9026 25.6172 30.9026 28.2897 32.551 29.9381C34.1994 31.5864 36.8719 31.5864 38.5202 29.9381Z" fill="#BC0FE8"/>
<path d="M35.5349 30.1628C37.3073 30.1628 38.7442 28.7259 38.7442 26.9535C38.7442 25.181 37.3073 23.7442 35.5349 23.7442C33.7624 23.7442 32.3256 25.181 32.3256 26.9535C32.3256 28.7259 33.7624 30.1628 35.5349 30.1628Z" fill="#ECB7F9"/>
<path d="M31.6279 36.407C30.3372 36.407 29.3256 35.2907 29.3256 34.0349V32.6395H29.2907H14.7791C14.7791 32.6744 14.7791 32.7093 14.7791 32.7791C14.7791 34.8023 16.4186 36.4419 18.4418 36.4419H31.6279V36.407Z" fill="#FDF4FF"/>
<path d="M31.6279 37H18.407C16.0698 37 14.1512 35.0814 14.1512 32.7442C14.1512 32.7093 14.1512 32.6744 14.1512 32.6395L14.186 32.0465H29.9186V34.0349C29.9186 35.0116 30.686 35.814 31.6279 35.814V37ZM15.3721 33.2326C15.5814 34.6977 16.8721 35.8488 18.407 35.8488H29.3256C28.9419 35.3605 28.7326 34.7326 28.7326 34.0698V33.2326H15.3721Z" fill="#BC0FE8"/>
<path d="M29.8488 20.3256H20.3256C20.0116 20.3256 19.7325 20.0465 19.7325 19.7326C19.7325 19.4186 20.0116 19.1395 20.3256 19.1395H29.8488C30.1628 19.1395 30.4418 19.4186 30.4418 19.7326C30.4418 20.0465 30.1628 20.3256 29.8488 20.3256Z" fill="#BC0FE8"/>
<path d="M29.8488 24.1628H20.3256C20.0116 24.1628 19.7325 23.8837 19.7325 23.5698C19.7325 23.2558 20.0116 22.9767 20.3256 22.9767H29.8488C30.1628 22.9767 30.4418 23.2558 30.4418 23.5698C30.4418 23.8837 30.1628 24.1628 29.8488 24.1628Z" fill="#BC0FE8"/>
<path d="M25.3488 28.2442H20.3256C20.0116 28.2442 19.7325 27.9651 19.7325 27.6512C19.7325 27.3372 20.0116 27.0581 20.3256 27.0581H25.3488C25.6628 27.0581 25.9418 27.3372 25.9418 27.6512C25.9418 28 25.6628 28.2442 25.3488 28.2442Z" fill="#BC0FE8"/>
<path d="M37.1395 26.8488L35.5 25.1395L33.8954 26.8488H34.8372V28.8023H36.1628V26.8488H37.1395Z" fill="white"/>
<path d="M17.5195 19.0023C18.8954 17.6264 18.8954 15.3957 17.5195 14.0198C16.1436 12.6438 13.9129 12.6438 12.5369 14.0198C11.161 15.3957 11.161 17.6264 12.5369 19.0023C13.9129 20.3782 16.1436 20.3782 17.5195 19.0023Z" fill="#BC0FE8"/>
<path d="M16.9276 18.4104C17.9765 17.3614 17.9765 15.6607 16.9276 14.6117C15.8786 13.5628 14.1779 13.5628 13.1289 14.6117C12.08 15.6607 12.08 17.3614 13.1289 18.4104C14.1779 19.4593 15.8786 19.4593 16.9276 18.4104Z" fill="#ECB7F9"/>
<path d="M13.4535 16.7674L14.8837 18.3023L16.314 16.7674H15.4767V15.0581H14.2907V16.7674H13.4535Z" fill="white"/>
</g>
<defs>
<clipPath id="clip0_101_396">
<rect width="28.2558" height="24" fill="white" transform="translate(11.5 13)"/>
</clipPath>
</defs>
</svg>
