<svg xmlns="http://www.w3.org/2000/svg" width="10.368" height="12" viewBox="0 0 10.368 12">
  <g id="doctor" transform="translate(-34.007)">
    <g id="Group_579" data-name="Group 579" transform="translate(36.846)">
      <g id="Group_578" data-name="Group 578" transform="translate(0)">
        <path id="Path_1413" data-name="Path 1413" d="M154.649,0A2.347,2.347,0,0,0,152.3,2.345V3.56a2.345,2.345,0,1,0,4.689,0V2.345A2.347,2.347,0,0,0,154.649,0Z" transform="translate(-152.304)" fill="#999"/>
      </g>
    </g>
    <g id="Group_581" data-name="Group 581" transform="translate(34.007 6.285)">
      <g id="Group_580" data-name="Group 580" transform="translate(0)">
        <path id="Path_1414" data-name="Path 1414" d="M44.362,264.571a5.947,5.947,0,0,0-3.379-2.671.093.093,0,0,0-.094.023,9.79,9.79,0,0,1-1.7,1.29,12.184,12.184,0,0,1-1.7-1.29.093.093,0,0,0-.094-.023,5.946,5.946,0,0,0-3.379,2.671.094.094,0,0,0,0,.095,6.013,6.013,0,0,0,10.342,0A.094.094,0,0,0,44.362,264.571Zm-1.982.7a.1.1,0,0,1-.1.091h-.635a.109.109,0,0,0-.108.1v.657a.08.08,0,0,1-.079.091h-.57a.1.1,0,0,1-.1-.091v-.657a.091.091,0,0,0-.087-.1h-.662a.092.092,0,0,1-.095-.091V264.7a.094.094,0,0,1,.095-.093H40.7a.089.089,0,0,0,.087-.094v-.658a.1.1,0,0,1,.1-.093h.564a.086.086,0,0,1,.086.093v.659a.1.1,0,0,0,.1.092h.641a.1.1,0,0,1,.1.1v.564Z" transform="translate(-34.007 -261.896)" fill="#999"/>
      </g>
    </g>
  </g>
</svg>
