<svg id="help" xmlns="http://www.w3.org/2000/svg" width="12" height="12" viewBox="0 0 12 12">
  <path id="Path_1436" data-name="Path 1436" d="M206.023,202.145a3.891,3.891,0,0,0-2.134-3.465,5.291,5.291,0,0,1-5.21,5.21,3.88,3.88,0,0,0,5.438,1.594l1.888.522-.522-1.888A3.865,3.865,0,0,0,206.023,202.145Zm0,0" transform="translate(-194.023 -194.023)" fill="#999"/>
  <path id="Path_1437" data-name="Path 1437" d="M9.164,4.582A4.582,4.582,0,1,0,.635,6.911L.017,9.147l2.236-.618A4.583,4.583,0,0,0,9.164,4.582ZM3.879,3.516h-.7A1.406,1.406,0,1,1,5.531,4.553l-.6.547v.548h-.7V4.79l.826-.756a.7.7,0,0,0,.229-.519.7.7,0,0,0-1.406,0ZM4.23,6.352h.7v.7h-.7Zm0,0" fill="#999"/>
</svg>
