<svg width="50" height="50" viewBox="0 0 50 50" fill="none" xmlns="http://www.w3.org/2000/svg">
<rect width="50" height="50" rx="15" fill="#09DEAB"/>
<g clip-path="url(#clip0_101_436)">
<path d="M32.8775 34.3878H20.8775C20.102 34.3878 19.449 33.7755 19.449 32.9592V14.9184C19.449 14.1429 20.0612 13.4898 20.8775 13.4898H32.9184C33.6939 13.4898 34.3469 14.102 34.3469 14.9184V32.9592C34.3061 33.7347 33.6531 34.3878 32.8775 34.3878Z" fill="white"/>
<path d="M32.8776 34.8776H20.8776C19.8163 34.8776 18.9592 34.0204 18.9592 32.9592V14.9184C18.9592 13.8571 19.8163 13 20.8776 13H32.9184C33.9796 13 34.8367 13.8571 34.8367 14.9184V32.9592C34.7959 34.0204 33.9388 34.8776 32.8776 34.8776ZM20.8776 14.0204C20.3878 14.0204 19.9796 14.4286 19.9796 14.9184V32.9592C19.9796 33.449 20.3878 33.8571 20.8776 33.8571H32.9184C33.4082 33.8571 33.8163 33.449 33.8163 32.9592V14.9184C33.8163 14.4286 33.4082 14.0204 32.9184 14.0204H20.8776Z" fill="#09B58B"/>
<path d="M28.9184 36.4694H16.9592C16.1837 36.4694 15.5306 35.8163 15.5306 35.0408V17.0408C15.5306 16.2653 16.1837 15.6122 16.9592 15.6122H28.9184C29.6939 15.6122 30.3469 16.2653 30.3469 17.0408V35.0408C30.3469 35.8571 29.6939 36.4694 28.9184 36.4694Z" fill="white"/>
<path d="M28.9184 37H16.9592C15.8571 37 15 36.102 15 35.0408V17.0408C15 15.9796 15.8571 15.0816 16.9592 15.0816H28.9184C29.9796 15.0816 30.8776 15.9388 30.8776 17.0408V35.0408C30.8776 36.102 29.9796 37 28.9184 37ZM16.9592 16.102C16.4286 16.102 16.0204 16.5102 16.0204 17.0408V35.0408C16.0204 35.5714 16.4286 35.9796 16.9592 35.9796H28.9184C29.449 35.9796 29.8571 35.5714 29.8571 35.0408V17.0408C29.8571 16.5102 29.449 16.102 28.9184 16.102H16.9592Z" fill="#09B58B"/>
<path d="M24.6735 18.8367H23.6939V17.8571H22.1837V18.8367H21.2041V20.3469H22.1837V21.2857H23.6939V20.3469H24.6735V18.8367Z" fill="#09DEAB"/>
<path d="M27.898 23.7347H17.9388V24.1429H27.898V23.7347Z" fill="#09DEAB"/>
<path d="M27.898 25.8571H17.9388V26.2653H27.898V25.8571Z" fill="#09DEAB"/>
<path d="M27.898 27.9388H17.9388V28.3469H27.898V27.9388Z" fill="#09DEAB"/>
<path d="M27.898 33.0408H17.9388V33.449H27.898V33.0408Z" fill="#09DEAB"/>
<path d="M26.2653 31.4082H19.5714V32.1837H26.2653V31.4082Z" fill="#09DEAB"/>
</g>
<defs>
<clipPath id="clip0_101_436">
<rect width="19.7959" height="24" fill="white" transform="translate(15 13)"/>
</clipPath>
</defs>
</svg>
