<svg width="51" height="50" viewBox="0 0 51 50" fill="none" xmlns="http://www.w3.org/2000/svg">
<rect x="0.5" width="50" height="50" rx="15" fill="#9176FD"/>
<g clip-path="url(#clip0_101_418)">
<path d="M31.9146 13.7108C36.4721 13.7108 40.1934 17.3902 40.1934 21.9895C40.1934 24.0801 39.3989 26.0035 38.1028 27.4669L41.1132 30.4355C41.1132 30.4355 37.8937 31.2718 34.5069 29.8502C33.6707 30.1429 32.7927 30.2683 31.8728 30.2683C27.3153 30.2683 23.5941 26.5888 23.5941 21.9895C23.5941 17.3902 27.3571 13.7108 31.9146 13.7108Z" fill="#DAD0FF"/>
<path d="M38.7718 31.3972C37.5592 31.3972 36.054 31.23 34.4651 30.6028C33.6289 30.8537 32.7509 30.9791 31.8728 30.9791C26.939 30.9791 22.8833 26.9652 22.8833 21.9895C22.9251 17.0139 26.939 13 31.9146 13C36.8484 13 40.9042 17.0139 40.9042 21.9895C40.9042 23.9547 40.277 25.8362 39.1063 27.4251L42.5766 30.8118L41.3641 31.1463C41.2387 31.1463 40.2352 31.3972 38.7718 31.3972ZM34.5488 29.0557L34.7996 29.1812C36.6394 29.9756 38.3955 30.0174 39.5662 29.9338L37.0993 27.5087L37.5592 27.007C38.7718 25.6272 39.4408 23.8711 39.4408 22.0314C39.4408 17.892 36.054 14.5052 31.9146 14.5052C27.7753 14.5052 24.3885 17.892 24.3885 22.0314C24.3885 26.1707 27.7753 29.5575 31.9146 29.5575C32.7091 29.5575 33.5453 29.4321 34.2979 29.1812L34.5488 29.0557Z" fill="#6640FF"/>
<path d="M20.6672 16.4704C15.3571 16.4704 11.0087 20.777 11.0087 26.1289C11.0087 28.5958 11.9286 30.8118 13.4338 32.5261L9.9216 35.9965C9.9216 35.9965 13.6847 37 17.6568 35.2857C18.6185 35.6202 19.6638 35.7875 20.7091 35.7875C26.061 35.7875 30.3676 31.4808 30.3676 26.1289C30.3258 20.777 26.0192 16.4704 20.6672 16.4704Z" fill="white"/>
<path d="M20.6673 16.4704C20.1237 16.4704 19.5801 16.5122 19.0366 16.5958C23.5941 17.3902 27.0645 21.3624 27.0645 26.1289C27.0645 30.8955 23.5941 34.8676 19.0366 35.662C19.5801 35.7456 20.1237 35.7875 20.6673 35.7875C26.0192 35.7875 30.3258 31.4808 30.3258 26.1289C30.3258 20.777 26.0192 16.4704 20.6673 16.4704Z" fill="#DAD0FF"/>
<path d="M12.6394 37C10.9669 37 9.79617 36.7073 9.71254 36.6655L8.5 36.3728L12.4721 32.4843C11.0505 30.6864 10.2979 28.4286 10.2979 26.1289C10.2979 20.4007 14.939 15.7596 20.6672 15.7596C26.3955 15.7596 31.0784 20.4007 31.0784 26.1289C31.0784 31.8571 26.4373 36.4983 20.7091 36.4983C19.6638 36.4983 18.6603 36.331 17.6986 36.0383C15.8171 36.7909 14.061 37 12.6394 37ZM11.4268 35.4948C12.8066 35.6202 15.0226 35.6202 17.3223 34.6167L17.5732 34.4913L17.824 34.5749C18.7439 34.8676 19.7056 35.0348 20.6672 35.0348C25.601 35.0348 29.615 31.0209 29.615 26.0871C29.615 21.1533 25.601 17.1394 20.6672 17.1394C15.7334 17.1394 11.7195 21.1951 11.7195 26.1289C11.7195 28.3031 12.5139 30.3937 13.9774 32.0662L14.4373 32.5679L11.4268 35.4948Z" fill="#6640FF"/>
<path d="M17.6568 26.0871C17.6568 26.5888 17.2387 27.0488 16.6951 27.0488C16.1934 27.0488 15.7335 26.6307 15.7335 26.0871C15.7335 25.5854 16.1516 25.1254 16.6951 25.1254C17.2387 25.1254 17.6568 25.5436 17.6568 26.0871Z" fill="#6640FF"/>
<path d="M21.7126 26.0871C21.7126 26.5888 21.2944 27.0488 20.7509 27.0488C20.2073 27.0488 19.7892 26.6307 19.7892 26.0871C19.7892 25.5854 20.2073 25.1254 20.7509 25.1254C21.2944 25.1254 21.7126 25.5436 21.7126 26.0871Z" fill="#6640FF"/>
<path d="M25.4756 26.0871C25.4756 26.5888 25.0575 27.0488 24.5139 27.0488C24.0122 27.0488 23.5523 26.6307 23.5523 26.0871C23.5523 25.5854 23.9704 25.1254 24.5139 25.1254C25.0575 25.1254 25.4756 25.5436 25.4756 26.0871Z" fill="#6640FF"/>
</g>
<defs>
<clipPath id="clip0_101_418">
<rect width="34.0348" height="24" fill="white" transform="translate(8.5 13)"/>
</clipPath>
</defs>
</svg>
