<svg xmlns="http://www.w3.org/2000/svg" width="12" height="11.406" viewBox="0 0 12 11.406">
  <g id="home" transform="translate(0 -12.676)">
    <g id="Group_616" data-name="Group 616" transform="translate(0 12.675)">
      <g id="Group_615" data-name="Group 615" transform="translate(0 0)">
        <path id="Path_1448" data-name="Path 1448" d="M11.8,17.743,6.414,12.837a.613.613,0,0,0-.829,0L.2,17.743a.615.615,0,0,0,.414,1.07h.86v4.915a.353.353,0,0,0,.353.353H4.78a.353.353,0,0,0,.353-.353V20.744H6.867v2.984a.353.353,0,0,0,.353.353h2.951a.353.353,0,0,0,.353-.353V18.813h.86a.615.615,0,0,0,.414-1.07Z" transform="translate(0 -12.675)" fill="#999"/>
      </g>
    </g>
  </g>
</svg>
