<svg width="50" height="50" viewBox="0 0 50 50" fill="none" xmlns="http://www.w3.org/2000/svg">
<rect width="50" height="50" rx="15" fill="#FED74C"/>
<g clip-path="url(#clip0_101_361)">
<path d="M24.9814 13.5581C18.6558 13.5581 13.5209 18.693 13.5209 25.0186C13.5209 31.3442 18.6558 36.4419 24.9814 36.4419C31.307 36.4419 36.4419 31.307 36.4419 24.9814C36.4419 18.6558 31.307 13.5581 24.9814 13.5581ZM24.9814 33.5767C20.2558 33.5767 16.4233 29.7442 16.4233 25.0186C16.4233 20.293 20.2558 16.4605 24.9814 16.4605C29.707 16.4605 33.5395 20.293 33.5395 25.0186C33.5395 29.7442 29.7442 33.5767 24.9814 33.5767Z" fill="#FFECC7"/>
<path d="M30.0319 31.8969C33.8443 29.1035 34.6704 23.7485 31.8771 19.936C29.0837 16.1236 23.7286 15.2975 19.9162 18.0909C16.1038 20.8843 15.2777 26.2393 18.0711 30.0518C20.8645 33.8642 26.2195 34.6903 30.0319 31.8969Z" fill="white"/>
<path d="M24.9814 16.4232C24.5349 16.4232 24.0511 16.4605 23.6418 16.5349C27.7349 17.2046 30.8605 20.7395 30.8605 24.9814C30.8605 29.2232 27.7349 32.7953 23.6418 33.4279C24.0884 33.5023 24.5349 33.5395 24.9814 33.5395C29.707 33.5395 33.5395 29.707 33.5395 24.9814C33.5395 20.2558 29.7442 16.4232 24.9814 16.4232Z" fill="#FFE99C"/>
<path d="M24.9814 37C18.3953 37 13 31.6047 13 24.9814C13 18.3953 18.3953 13 24.9814 13C31.6047 13 37 18.3953 37 24.9814C37 31.6047 31.6047 37 24.9814 37ZM24.9814 14.0791C18.9907 14.0791 14.0791 18.9907 14.0791 24.9814C14.0791 31.0093 18.9535 35.8837 24.9814 35.8837C31.0093 35.8837 35.8837 31.0093 35.8837 24.9814C35.8837 18.9907 31.0093 14.0791 24.9814 14.0791ZM24.9814 34.0977C19.9581 34.0977 15.8651 30.0047 15.8651 24.9814C15.8651 19.9581 19.9581 15.8651 24.9814 15.8651C30.0047 15.8651 34.0977 19.9581 34.0977 24.9814C34.0977 30.0419 30.0419 34.0977 24.9814 34.0977ZM24.9814 16.9814C20.5535 16.9814 16.9442 20.5907 16.9442 25.0186C16.9442 29.4465 20.5535 33.0558 24.9814 33.0558C29.4093 33.0558 33.0186 29.4465 33.0186 25.0186C33.0186 20.5907 29.4093 16.9814 24.9814 16.9814Z" fill="#F3AB18"/>
<path d="M24.9814 27.0651C23.9767 27.0651 23.1581 26.2465 23.1581 25.2419C23.1581 24.2372 23.9767 23.4186 24.9814 23.4186C25.986 23.4186 26.8047 24.2372 26.8047 25.2419C26.8047 26.2465 25.986 27.0651 24.9814 27.0651ZM24.9814 24.4977C24.5721 24.4977 24.2744 24.8326 24.2744 25.2046C24.2744 25.614 24.6093 25.9116 24.9814 25.9116C25.3907 25.9116 25.6884 25.5767 25.6884 25.2046C25.7256 24.8326 25.3907 24.4977 24.9814 24.4977Z" fill="#F3AB18"/>
<path d="M24.9814 24.3861C24.6837 24.3861 24.4232 24.1256 24.4232 23.8279V19.4372C24.4232 19.1395 24.6837 18.8791 24.9814 18.8791C25.2791 18.8791 25.5395 19.1395 25.5395 19.4372V23.8279C25.5395 24.1256 25.3163 24.3861 24.9814 24.3861Z" fill="#F3AB18"/>
<path d="M22.4884 28.814C22.3396 28.814 22.1907 28.7767 22.1163 28.6651C21.893 28.4419 21.893 28.107 22.1163 27.8837L24.014 25.986C24.2372 25.7628 24.5721 25.7628 24.7954 25.986C25.0186 26.2093 25.0186 26.5442 24.7954 26.7674L22.8977 28.6651C22.7489 28.7767 22.6372 28.814 22.4884 28.814Z" fill="#F3AB18"/>
</g>
<defs>
<clipPath id="clip0_101_361">
<rect width="24" height="24" fill="white" transform="translate(13 13)"/>
</clipPath>
</defs>
</svg>
