<svg xmlns="http://www.w3.org/2000/svg" width="89.466" height="124.739" viewBox="0 0 89.466 124.739">
  <g id="logo" transform="translate(-141 -77.261)">
    <text id="tClinic" transform="translate(143 196)" fill="#021a48" font-size="26" font-family="SFUFreewayBlack, SFU Freeway"><tspan x="0" y="0">tClinic</tspan></text>
    <g id="Group_1" data-name="Group 1" transform="translate(141 77.261)">
      <g id="Group_2" data-name="Group 2">
        <g id="Group_1-2" data-name="Group 1">
          <path id="Path_1" data-name="Path 1" d="M-160.557,228.812c-.684.025-1.4.231-1.525,1.005-.135.853.605,1.123,1.25,1.271,4.24.971,8.521,1.772,12.741,2.95a38.811,38.811,0,0,0-10.9-5.065A5.355,5.355,0,0,0-160.557,228.812Z" transform="translate(177.797 -149.847)" fill="#021a48"/>
          <path id="Path_2" data-name="Path 2" d="M-159.717,234.053c-.4.041-.859.081-.983.516-.161.562.3.849.721,1.018a4.319,4.319,0,0,0,1.516.378c2.627.037,5.255.017,7.883.017l.1-.262c-1.778-.412-3.561-.8-5.331-1.242A11.241,11.241,0,0,0-159.717,234.053Z" transform="translate(177.555 -150.771)" fill="#021a48"/>
          <path id="Path_3" data-name="Path 3" d="M-93.23,185.575c1.263-5.6,2.885-11.548-.526-23.153a42.352,42.352,0,0,0-24.279-25.752,47.286,47.286,0,0,0-33.4-1.527,43.394,43.394,0,0,0-18.335,11.073,37.748,37.748,0,0,0-10.512,19.449c-1.945,9.862-.9,19.221,4.657,27.826.744,1.013,2.548,3.311,3.325,2.333s-2.6-6.027-3.646-9.115-3.443-17.483,4.956-29.107c8.518-12.016,20.438-17.174,35.03-16.046a36.931,36.931,0,0,1,23.21,10.548c12.328,14.518,10.572,27.74,7.749,35.558s-9.52,13.644-9.52,13.644-3.929,3.223-6.284,3.468a4.339,4.339,0,0,1-2.925.179,14.379,14.379,0,0,0-6.367-.337,4.5,4.5,0,0,1-3.568-.429c-5.76-3.805-6.655.413-6.554.457h0c.372,1.551,1.714,2.093,2.913,2.763a34.73,34.73,0,0,1,3.482,1.884c.866.624,1.713,1.672.186,2.488-4.576,2.445-9.368,3.383-14.29,1.172-2.648-1.189-5.113-2.779-7.693-4.126-2.106-1.1-4.206-2.289-6.693-2.258-.948.012-2.013.153-2.184,1.286-.177,1.168.957,1.3,1.735,1.522a33.736,33.736,0,0,1,10.514,5.443c2.4,1.736,4.738,3.638,7.716,4.388,11.747,2.957,22.537.658,32.53-5.945a40.549,40.549,0,0,0,10.237-9.58c.2-.271,2.683-3.732,2.949-4.164A48.174,48.174,0,0,0-93.23,185.575Z" transform="translate(181.184 -132.814)" fill="#021a48"/>
        </g>
      </g>
      <path id="Path_4" data-name="Path 4" d="M-172.913,197.5c4.239,3.418,9.291,7.651,12.789,15.9,2.788.547,5.356.765,10.493,5.028a45.446,45.446,0,0,1,1.093-32.137c.547-1.53-2.022-2.677-3.662,1.859s-4.208,16.205-13.281,11.258l-5.028-3.771c-1.53-1.148-2.323-1.367-2.842-.929S-174.336,196.353-172.913,197.5Z" transform="translate(179.884 -142.063)" fill="#021a48"/>
      <circle id="Ellipse_1" data-name="Ellipse 1" cx="3.056" cy="3.056" r="3.056" transform="translate(15.666 50.508)" fill="#021a48"/>
      <path id="Path_5" data-name="Path 5" d="M-95.584,194.279c-3.791,2.938-8.309,6.579-11.437,13.676a11.072,11.072,0,0,1-8.342-.855s1.744-14.326-2.02-22.456c-.489-1.316,1.809-2.3,3.275,1.6s3.764,13.934,11.878,9.681l4.5-3.243c1.369-.987,2.077-1.175,2.542-.8S-94.311,193.292-95.584,194.279Z" transform="translate(169.875 -141.804)" fill="#021a48"/>
      <ellipse id="Ellipse_2" data-name="Ellipse 2" cx="2.733" cy="2.628" rx="2.733" ry="2.628" transform="translate(61.755 46.642)" fill="#021a48"/>
      <path id="Path_6" data-name="Path 6" d="M-143.572,217.729c-.081-6.886.082-7.368,0-11.431s-.819-18-8.526-28.9c-.9-1.722-.984-2.951,0-3.526s2.514-.984,3.921,1.476,4.769,8.526,6.326,10.822,6.8,7.952,13.527.738,7.132-7.788,7.132-7.788,1.64-2.214,3.443-.738.738,2.211,0,3.319-12.215,12.667-12.789,26.358c-3.935-1.885-5.492-.573-6.066.574s-2.788,6.477,6.231,9.51C-133.734,219.7-139.044,220.769-143.572,217.729Z" transform="translate(176.148 -140.021)" fill="#021a48"/>
      <circle id="Ellipse_3" data-name="Ellipse 3" cx="4.468" cy="4.468" r="4.468" transform="translate(36.424 36.569)" fill="#021a48"/>
      <path id="Path_7" data-name="Path 7" d="M-125.993,157.138h-3.881v-3.88a.813.813,0,0,0-.813-.814h-.64a.813.813,0,0,0-.813.814v3.88h-3.881a.813.813,0,0,0-.813.814v.64a.812.812,0,0,0,.813.813h3.881v3.881a.812.812,0,0,0,.813.813h.64a.812.812,0,0,0,.813-.813V159.4h3.881a.812.812,0,0,0,.813-.813v-.64A.813.813,0,0,0-125.993,157.138Z" transform="translate(173.314 -136.297)" fill="#021a48"/>
      <path id="Path_8" data-name="Path 8" d="M-163.591,174.289h-1.983v-1.983a.631.631,0,0,0-.631-.631.631.631,0,0,0-.632.631v1.983h-1.983a.632.632,0,0,0-.631.631.632.632,0,0,0,.631.632h1.983v1.983a.632.632,0,0,0,.632.631.632.632,0,0,0,.631-.631v-1.983h1.983a.631.631,0,0,0,.631-.632A.631.631,0,0,0-163.591,174.289Z" transform="translate(179.102 -139.709)" fill="#021a48"/>
      <path id="Path_9" data-name="Path 9" d="M-105.675,165.28h-1.983V163.3a.631.631,0,0,0-.631-.631.63.63,0,0,0-.631.631v1.983H-110.9a.631.631,0,0,0-.631.631.631.631,0,0,0,.631.631h1.984v1.983a.631.631,0,0,0,.631.632.632.632,0,0,0,.631-.632v-1.983h1.983a.631.631,0,0,0,.631-.631A.63.63,0,0,0-105.675,165.28Z" transform="translate(168.825 -138.111)" fill="#021a48"/>
      <path id="Path_10" data-name="Path 10" d="M-93.988,178.5h-1.583V176.92a.5.5,0,0,0-.5-.5.5.5,0,0,0-.5.5V178.5h-1.583a.5.5,0,0,0-.5.5.5.5,0,0,0,.5.5h1.583v1.583a.5.5,0,0,0,.5.5.5.5,0,0,0,.5-.5v-1.583h1.583a.5.5,0,0,0,.5-.5A.5.5,0,0,0-93.988,178.5Z" transform="translate(166.542 -140.551)" fill="#021a48"/>
      <path id="Path_11" data-name="Path 11" d="M-147.724,159.574h-1.983v-1.983a.63.63,0,0,0-.631-.631.631.631,0,0,0-.631.631v1.983h-1.983a.631.631,0,0,0-.632.631.631.631,0,0,0,.632.631h1.983v1.983a.631.631,0,0,0,.631.632.631.631,0,0,0,.631-.632v-1.983h1.983a.631.631,0,0,0,.632-.631A.631.631,0,0,0-147.724,159.574Z" transform="translate(176.286 -137.098)" fill="#021a48"/>
    </g>
  </g>
</svg>
