<svg xmlns="http://www.w3.org/2000/svg" width="24" height="24" viewBox="0 0 24 24">
  <g id="medical-history" transform="translate(-1899 -2385)">
    <circle id="Ellipse_6" data-name="Ellipse 6" cx="12" cy="12" r="12" transform="translate(1899 2385)" fill="#dde5f2"/>
    <g id="medical-history-2" data-name="medical-history" transform="translate(1907.001 2391)">
      <path id="Path_1460" data-name="Path 1460" d="M.789,77.253H8.027a.767.767,0,0,0,.789-.734v-8.78A.77.77,0,0,0,8.027,67H6.834v.67a.213.213,0,0,1-.206.217H2.174a.224.224,0,0,1-.218-.217V67H.789A.77.77,0,0,0,0,67.738v8.78a.767.767,0,0,0,.789.734ZM2.4,70.522a.209.209,0,0,1,.209-.209h1.07v-1.07a.209.209,0,0,1,.209-.209H4.93a.209.209,0,0,1,.209.209v1.07h1.07a.209.209,0,0,1,.209.209v1.043a.209.209,0,0,1-.209.209H5.138v1.07a.209.209,0,0,1-.209.209H3.886a.209.209,0,0,1-.209-.209v-1.07H2.608a.209.209,0,0,1-.209-.209Zm.085,3.6H6.332a.209.209,0,1,1,0,.417H2.484a.209.209,0,1,1,0-.417ZM1.7,75.166H7.114a.209.209,0,0,1,0,.417H1.7a.209.209,0,0,1,0-.417Zm0,0" transform="translate(0 -65.253)" fill="#0a3380"/>
      <path id="Path_1461" data-name="Path 1461" d="M95.043.809h-.977a.209.209,0,0,1-.2-.165A.85.85,0,0,0,93.021,0h0a.868.868,0,0,0-.842.652.209.209,0,0,1-.2.157H91V2.217h4.043Zm0,0" transform="translate(-88.627)" fill="#0a3380"/>
    </g>
  </g>
</svg>
