<svg xmlns="http://www.w3.org/2000/svg" width="12" height="12" viewBox="0 0 12 12">
  <g id="phone-call" transform="translate(-0.006)">
    <g id="Group_605" data-name="Group 605" transform="translate(0.006)">
      <path id="Path_1440" data-name="Path 1440" d="M9.129,52.924a.841.841,0,0,0-1.271,0c-.3.295-.594.589-.886.889a.175.175,0,0,1-.245.045c-.192-.1-.4-.19-.582-.3A9.219,9.219,0,0,1,3.922,51.53a5.265,5.265,0,0,1-.8-1.276.183.183,0,0,1,.045-.235c.3-.287.587-.582.879-.876a.844.844,0,0,0,0-1.3c-.232-.235-.464-.464-.7-.7s-.477-.482-.719-.719a.846.846,0,0,0-1.271,0c-.3.295-.587.6-.891.886a1.447,1.447,0,0,0-.454.976,4.137,4.137,0,0,0,.32,1.78,10.819,10.819,0,0,0,1.92,3.2A11.883,11.883,0,0,0,6.19,56.347a5.692,5.692,0,0,0,2.18.634,1.6,1.6,0,0,0,1.371-.522c.255-.285.542-.544.812-.817a.85.85,0,0,0,0-1.294Q9.846,53.634,9.129,52.924Z" transform="translate(-0.006 -44.985)" fill="#999"/>
      <path id="Path_1441" data-name="Path 1441" d="M240.561,99.551l.921-.157a4.136,4.136,0,0,0-3.5-3.394l-.13.926a3.2,3.2,0,0,1,2.707,2.625Z" transform="translate(-231.915 -93.603)" fill="#999"/>
      <path id="Path_1442" data-name="Path 1442" d="M246.779,1.943A6.794,6.794,0,0,0,242.884,0l-.13.926a5.929,5.929,0,0,1,5.017,4.862l.921-.157A6.844,6.844,0,0,0,246.779,1.943Z" transform="translate(-236.692)" fill="#999"/>
    </g>
  </g>
</svg>
