<svg xmlns="http://www.w3.org/2000/svg" width="12" height="12.017" viewBox="0 0 12 12.017">
  <g id="phone-call" transform="translate(-0.344 0)">
    <g id="Group_641" data-name="Group 641" transform="translate(0.344 0)">
      <path id="Path_1492" data-name="Path 1492" d="M9.833,34.155a1.182,1.182,0,0,0-.857-.393,1.222,1.222,0,0,0-.867.391l-.8.8c-.066-.036-.132-.068-.2-.1-.091-.046-.178-.089-.251-.134a8.711,8.711,0,0,1-2.087-1.9,5.139,5.139,0,0,1-.685-1.08c.208-.19.4-.388.588-.578l.213-.216a1.164,1.164,0,0,0,0-1.755L4.2,28.492c-.079-.079-.16-.16-.236-.241-.152-.157-.312-.32-.477-.472a1.2,1.2,0,0,0-.85-.373,1.242,1.242,0,0,0-.862.373l-.005.005-.862.87a1.856,1.856,0,0,0-.55,1.179A4.446,4.446,0,0,0,.68,31.715a10.921,10.921,0,0,0,1.94,3.236,11.936,11.936,0,0,0,3.974,3.112,6.192,6.192,0,0,0,2.232.659c.053,0,.109.005.16.005A1.911,1.911,0,0,0,10.45,38.1c0-.005.008-.008.01-.013a5.767,5.767,0,0,1,.444-.459c.109-.1.221-.213.33-.327a1.265,1.265,0,0,0,.383-.878,1.219,1.219,0,0,0-.391-.87Zm.908,2.671s0,0,0,0c-.1.107-.2.2-.309.309a6.669,6.669,0,0,0-.49.507,1.223,1.223,0,0,1-.954.4c-.038,0-.079,0-.117,0a5.5,5.5,0,0,1-1.978-.594A11.267,11.267,0,0,1,3.15,34.518a10.3,10.3,0,0,1-1.826-3.041,3.621,3.621,0,0,1-.284-1.588,1.164,1.164,0,0,1,.35-.753l.865-.865a.577.577,0,0,1,.386-.18.543.543,0,0,1,.37.178l.008.008c.155.145.3.294.457.454l.241.246.692.692a.484.484,0,0,1,0,.786c-.074.074-.145.147-.218.218-.213.218-.416.421-.637.619-.005.005-.01.008-.013.013a.517.517,0,0,0-.132.576l.008.023a5.559,5.559,0,0,0,.819,1.337l0,0A9.309,9.309,0,0,0,6.49,35.292a3.463,3.463,0,0,0,.312.17c.091.046.178.089.251.134l.03.018a.55.55,0,0,0,.251.063.542.542,0,0,0,.386-.175l.867-.867a.574.574,0,0,1,.383-.19.517.517,0,0,1,.365.185l.005.005,1.4,1.4A.5.5,0,0,1,10.741,36.826Z" transform="translate(-0.344 -26.711)" fill="#818181"/>
      <path id="Path_1493" data-name="Path 1493" d="M245.226,86.6a3.264,3.264,0,0,1,2.658,2.658.34.34,0,0,0,.337.284.452.452,0,0,0,.058-.005.343.343,0,0,0,.282-.4,3.947,3.947,0,0,0-3.216-3.216.344.344,0,0,0-.4.279A.339.339,0,0,0,245.226,86.6Z" transform="translate(-238.74 -83.746)" fill="#818181"/>
      <path id="Path_1494" data-name="Path 1494" d="M254.469,5.3a6.5,6.5,0,0,0-5.3-5.3.342.342,0,1,0-.112.675,5.805,5.805,0,0,1,4.733,4.733.34.34,0,0,0,.337.284.453.453,0,0,0,.058-.005A.336.336,0,0,0,254.469,5.3Z" transform="translate(-242.474 0)" fill="#818181"/>
    </g>
  </g>
</svg>
