<svg xmlns="http://www.w3.org/2000/svg" width="12" height="12" viewBox="0 0 12 12">
  <g id="pill" transform="translate(0 0.001)">
    <g id="Group_640" data-name="Group 640" transform="translate(0 -0.001)">
      <path id="Path_1489" data-name="Path 1489" d="M10.392,6.081l.681-.681A3.164,3.164,0,0,0,6.6.927L.927,6.6A3.164,3.164,0,0,0,5.4,11.072l.681-.681a3.163,3.163,0,1,0,4.31-4.31ZM5.672,8.835a3.157,3.157,0,0,0,.117.855l-.885.885A2.461,2.461,0,0,1,1.424,7.1L3.99,4.529,6.346,6.885A3.148,3.148,0,0,0,5.672,8.835ZM8.484,11.27a2.461,2.461,0,0,1,0-4.871ZM6.838,6.383,4.487,4.032,7.1,1.424a2.461,2.461,0,1,1,3.48,3.48l-.885.885a3.161,3.161,0,0,0-2.852.595ZM9.187,11.27V6.4a2.461,2.461,0,0,1,0,4.871Z" transform="translate(0 0.001)" fill="#818181"/>
    </g>
  </g>
</svg>
