<svg xmlns="http://www.w3.org/2000/svg" width="24" height="24" viewBox="0 0 24 24">
  <g id="records" transform="translate(-1910 -2306)">
    <circle id="Ellipse_4" data-name="Ellipse 4" cx="12" cy="12" r="12" transform="translate(1910 2306)" fill="#dde5f2"/>
    <g id="file_1_" data-name="file(1)" transform="translate(1917.602 2313)">
      <path id="Union_16" data-name="Union 16" d="M.8,12a.8.8,0,0,1-.8-.794V4.525H1.166A1.032,1.032,0,0,0,2.2,3.487V2.329H4.388A3.247,3.247,0,0,0,4.11,3.661a3.318,3.318,0,0,0,.869,2.246H2.647a.2.2,0,1,0,0,.394H5.405a3.31,3.31,0,0,0,2.05.7c.014,0,.02,0,.044,0v4.207A.8.8,0,0,1,6.7,12ZM2.45,10.051a.2.2,0,0,0,.2.2H6.582a.2.2,0,1,0,0-.394H2.647A.2.2,0,0,0,2.45,10.051Zm-1.727,0a.2.2,0,0,0,.2.2h.728a.2.2,0,0,0,0-.394H.92A.2.2,0,0,0,.723,10.051ZM2.45,8.078a.2.2,0,0,0,.2.2H6.582a.2.2,0,1,0,0-.394H2.647A.2.2,0,0,0,2.45,8.078Zm-1.727,0a.2.2,0,0,0,.2.2h.728a.2.2,0,1,0,0-.394H.92A.2.2,0,0,0,.723,8.078Zm0-1.974a.2.2,0,0,0,.2.2h.728a.2.2,0,1,0,0-.394H.92A.2.2,0,0,0,.723,6.1ZM4.941,3.176A3.177,3.177,0,1,1,8.117,6.353,3.18,3.18,0,0,1,4.941,3.176Zm1.411,0a.354.354,0,0,0,.354.354H7.764V4.588a.353.353,0,1,0,.706,0V3.53H9.529a.353.353,0,0,0,0-.707H8.47V1.765a.353.353,0,1,0-.706,0V2.823H6.706A.354.354,0,0,0,6.352,3.176ZM.289,4.13,1.8,2.6v.886a.638.638,0,0,1-.635.644Z" transform="translate(0.399 -1)" fill="#0a3380"/>
    </g>
  </g>
</svg>
