<svg xmlns="http://www.w3.org/2000/svg" width="10" height="12" viewBox="0 0 10 12">
  <g id="saline" transform="translate(-42.666)">
    <g id="Group_620" data-name="Group 620" transform="translate(42.666)">
      <g id="Group_619" data-name="Group 619">
        <path id="Path_1466" data-name="Path 1466" d="M47.166,3V2.5a1.5,1.5,0,0,0-1-1.41V0h-1V1.09a1.5,1.5,0,0,0-1,1.41V3a1.5,1.5,0,0,0-1.5,1.5v5a1.5,1.5,0,0,0,1.5,1.5h1v1h1V11h1a1.5,1.5,0,0,0,1.5-1.5v-5A1.5,1.5,0,0,0,47.166,3Zm-2-.5a.5.5,0,0,1,1,0V3h-1V2.5Zm-.5,2h.5V4h1v.5h.5v1h-.5V6h-1V5.5h-.5Zm3,5a.5.5,0,0,1-.5.5h-3a.5.5,0,0,1-.5-.5V7h4Z" transform="translate(-42.666)" fill="#999"/>
        <path id="Path_1467" data-name="Path 1467" d="M342.833,131.47a1.5,1.5,0,0,0,1.5-1.5c0-.71-.885-1.6-1.155-1.865a.5.5,0,0,0-.685,0c-.275.26-1.16,1.155-1.16,1.865A1.5,1.5,0,0,0,342.833,131.47Zm.5-2a.5.5,0,1,1-.5.5A.5.5,0,0,1,343.333,129.47Z" transform="translate(-334.333 -124.97)" fill="#999"/>
        <path id="Path_1468" data-name="Path 1468" d="M343.178,320.1a.5.5,0,0,0-.685,0c-.275.26-1.16,1.155-1.16,1.865a1.5,1.5,0,0,0,3,0C344.333,321.26,343.448,320.365,343.178,320.1Zm.655,1.865a.5.5,0,1,1-.5-.5A.5.5,0,0,1,343.833,321.97Z" transform="translate(-334.333 -312.47)" fill="#999"/>
      </g>
    </g>
  </g>
</svg>
