<svg xmlns="http://www.w3.org/2000/svg" width="24" height="24" viewBox="0 0 24 24">
  <g id="statistics" transform="translate(-1908 -2342)">
    <circle id="Ellipse_5" data-name="Ellipse 5" cx="12" cy="12" r="12" transform="translate(1908 2342)" fill="#dde5f2"/>
    <g id="statistics-2" data-name="statistics" transform="translate(1914 2348)">
      <path id="Path_1423" data-name="Path 1423" d="M32.055,5.625a1.049,1.049,0,0,0,.73-.3l1.041.52a1.033,1.033,0,0,0-.013.128,1.055,1.055,0,0,0,2.109,0,1.042,1.042,0,0,0-.106-.452l1.412-1.412a1.042,1.042,0,0,0,.452.106,1.056,1.056,0,0,0,1.055-1.055,1.039,1.039,0,0,0-.053-.312l1.227-.92a1.054,1.054,0,1,0-.471-.877,1.039,1.039,0,0,0,.053.312l-1.227.92a1.05,1.05,0,0,0-1.533,1.329L35.319,5.028a1.036,1.036,0,0,0-1.182.191L33.1,4.7a1.033,1.033,0,0,0,.013-.128,1.055,1.055,0,1,0-1.055,1.055Zm0,0" transform="translate(-30.273)" fill="#0a3380"/>
      <path id="Path_1424" data-name="Path 1424" d="M11.648,157.781h-.375v-7.43a.351.351,0,0,0-.352-.352H9.516a.351.351,0,0,0-.352.352v7.43h-.7v-5.32a.351.351,0,0,0-.352-.352H6.7a.351.351,0,0,0-.352.352v5.32h-.7v-2.508a.351.351,0,0,0-.352-.352H3.891a.351.351,0,0,0-.352.352v2.508h-.7v-3.914a.351.351,0,0,0-.352-.352H1.078a.351.351,0,0,0-.352.352v3.914H.352a.352.352,0,0,0,0,.7h11.3a.352.352,0,0,0,0-.7Zm0,0" transform="translate(0 -146.484)" fill="#0a3380"/>
    </g>
  </g>
</svg>
