<svg width="50" height="50" viewBox="0 0 50 50" fill="none" xmlns="http://www.w3.org/2000/svg">
<rect width="50" height="50" rx="15" fill="#FEB74C"/>
<g clip-path="url(#clip0_101_374)">
<path d="M18.8291 15.4795C17.8119 15.4795 16.9536 16.306 16.9536 17.355V34.1391C16.9536 35.1563 17.7801 36.0146 18.8291 36.0146H26.9351C27.9523 36.0146 28.8106 35.1881 28.8106 34.1391V17.355C28.8106 16.3377 27.9841 15.4795 26.9351 15.4795H18.8291Z" fill="white"/>
<path d="M29.2874 18.4358V17.355C29.2874 16.0517 28.2384 15.0026 26.9351 15.0026H18.8291C17.5258 15.0026 16.4768 16.0517 16.4768 17.355V18.4358H29.2874Z" fill="#FFEAB5"/>
<path d="M16.4768 32.9629V34.1391C16.4768 35.4424 17.5258 36.4914 18.8291 36.4914H26.9351C28.2384 36.4914 29.2874 35.4424 29.2874 34.1391V32.9629H16.4768Z" fill="#FFEAB5"/>
<path d="M26.9351 37H18.8291C17.2715 37 16 35.7285 16 34.1709V17.355C16 15.7974 17.2715 14.5258 18.8291 14.5258H26.9351C28.4927 14.5258 29.7642 15.7974 29.7642 17.355V34.1391C29.796 35.6967 28.5245 37 26.9351 37ZM18.8291 15.4795C17.8119 15.4795 16.9536 16.306 16.9536 17.355V34.1391C16.9536 35.1563 17.7801 36.0146 18.8291 36.0146H26.9351C27.9523 36.0146 28.8106 35.1881 28.8106 34.1391V17.355C28.8106 16.3377 27.9841 15.4795 26.9351 15.4795H18.8291Z" fill="#FE9800"/>
<path d="M29.796 18.9126H16V17.3232C16 15.7656 17.2715 14.494 18.8291 14.494H26.9351C28.4927 14.494 29.7642 15.7656 29.7642 17.3232V18.9126H29.796ZM16.9854 17.9589H28.8106V17.355C28.8106 16.3378 27.9841 15.4795 26.9351 15.4795H18.8291C17.8119 15.4795 16.9536 16.306 16.9536 17.355V17.9589H16.9854Z" fill="#FE9800"/>
<path d="M26.9351 37H18.8291C17.2715 37 16 35.7285 16 34.1709V32.5179H29.796V34.1709C29.796 35.6967 28.5245 37 26.9351 37ZM16.9854 33.4397V34.1391C16.9854 35.1563 17.8119 36.0146 18.8609 36.0146H26.9669C27.9841 36.0146 28.8424 35.1881 28.8424 34.1391V33.4397H16.9854Z" fill="#FE9800"/>
<path d="M22.898 35.6331C23.4247 35.6331 23.8517 35.2062 23.8517 34.6795C23.8517 34.1528 23.4247 33.7258 22.898 33.7258C22.3713 33.7258 21.9444 34.1528 21.9444 34.6795C21.9444 35.2062 22.3713 35.6331 22.898 35.6331Z" fill="#FFCC7E"/>
<path d="M20.4185 20.1523H18.6066V21.4556H20.4185V20.1523Z" fill="#FFCC7E"/>
<path d="M27.1576 22.4728H18.6066V26.0331H27.1576V22.4728Z" fill="#FFCC7E"/>
<path d="M20.4185 20.1523H18.6066V21.4556H20.4185V20.1523Z" fill="#FFCC7E"/>
<path d="M27.1576 27.2411H18.6066V29.6887H27.1576V27.2411Z" fill="#FFCC7E"/>
<path d="M30.6543 20.7563C32.7961 20.7563 34.5324 19.02 34.5324 16.8781C34.5324 14.7363 32.7961 13 30.6543 13C28.5125 13 26.7762 14.7363 26.7762 16.8781C26.7762 19.02 28.5125 20.7563 30.6543 20.7563Z" fill="white"/>
<path d="M30.6543 19.8344C32.287 19.8344 33.6106 18.5109 33.6106 16.8781C33.6106 15.2454 32.287 13.9219 30.6543 13.9219C29.0216 13.9219 27.698 15.2454 27.698 16.8781C27.698 18.5109 29.0216 19.8344 30.6543 19.8344Z" fill="#FFCC7E"/>
<path d="M30.2728 18.1497L29.9549 18.4993L28.6198 17.1642L29.3828 16.4013L29.9549 17.0053L31.9258 15.0344L32.6569 15.7974L30.2728 18.1497Z" fill="white"/>
</g>
<defs>
<clipPath id="clip0_101_374">
<rect width="18.5324" height="24" fill="white" transform="translate(16 13)"/>
</clipPath>
</defs>
</svg>
