<?xml version="1.0" encoding="UTF-8"?>
<svg xmlns="http://www.w3.org/2000/svg" xmlns:xlink="http://www.w3.org/1999/xlink" width="160px" height="160px" viewBox="0 0 160 160" version="1.1">
<defs>
<clipPath id="clip1">
  <path d="M 42.273438 16.757812 L 117.695312 16.757812 L 117.695312 101.082031 L 42.273438 101.082031 Z M 42.273438 16.757812 "/>
</clipPath>
<clipPath id="clip2">
  <path d="M 25.769531 117 L 39 117 L 39 143.242188 L 25.769531 143.242188 Z M 25.769531 117 "/>
</clipPath>
<clipPath id="clip3">
  <path d="M 39 116.738281 L 63 116.738281 L 63 143.242188 L 39 143.242188 Z M 39 116.738281 "/>
</clipPath>
<clipPath id="clip4">
  <path d="M 66 116.738281 L 72 116.738281 L 72 143.242188 L 66 143.242188 Z M 66 116.738281 "/>
</clipPath>
<clipPath id="clip5">
  <path d="M 76 116.738281 L 82 116.738281 L 82 122 L 76 122 Z M 76 116.738281 "/>
</clipPath>
<clipPath id="clip6">
  <path d="M 76 123 L 82 123 L 82 143.242188 L 76 143.242188 Z M 76 123 "/>
</clipPath>
<clipPath id="clip7">
  <path d="M 86 123 L 103 123 L 103 143.242188 L 86 143.242188 Z M 86 123 "/>
</clipPath>
<clipPath id="clip8">
  <path d="M 107 116.738281 L 113 116.738281 L 113 122 L 107 122 Z M 107 116.738281 "/>
</clipPath>
<clipPath id="clip9">
  <path d="M 107 123 L 113 123 L 113 143.242188 L 107 143.242188 Z M 107 123 "/>
</clipPath>
<clipPath id="clip10">
  <path d="M 116 123 L 134.289062 123 L 134.289062 143.242188 L 116 143.242188 Z M 116 123 "/>
</clipPath>
</defs>
<g id="surface1">
<g clip-path="url(#clip1)" clip-rule="nonzero">
<path style=" stroke:none;fill-rule:nonzero;fill:rgb(13.72549%,21.568627%,42.745098%);fill-opacity:1;" d="M 117.695312 58.996094 C 117.621094 53.488281 117.621094 47.90625 117.621094 42.402344 C 117.621094 39.082031 116.261719 36.519531 113.472656 34.859375 C 103.742188 29.203125 94.011719 23.546875 84.207031 17.964844 C 81.417969 16.382812 78.476562 16.382812 75.761719 17.964844 C 65.957031 23.546875 56.300781 29.128906 46.574219 34.785156 C 43.707031 36.367188 42.273438 38.933594 42.273438 42.175781 C 42.273438 53.261719 42.273438 64.351562 42.273438 75.4375 C 42.273438 78.980469 43.78125 81.621094 46.875 83.355469 C 56.378906 88.785156 65.878906 94.292969 75.382812 99.796875 C 78.402344 101.53125 81.417969 101.53125 84.433594 99.796875 C 93.863281 94.367188 103.289062 88.863281 112.71875 83.507812 C 116.113281 81.546875 117.695312 78.753906 117.621094 74.910156 C 117.621094 69.628906 117.695312 64.273438 117.695312 58.996094 Z M 117.695312 58.996094 "/>
</g>
<path style=" stroke:none;fill-rule:nonzero;fill:rgb(100%,100%,100%);fill-opacity:1;" d="M 64.144531 53.789062 L 77.644531 53.789062 C 78.175781 54.546875 79.078125 55.074219 80.136719 55.074219 C 81.792969 55.074219 83.078125 53.714844 83.078125 52.132812 C 83.078125 50.472656 81.71875 49.191406 80.136719 49.191406 C 79.078125 49.191406 78.25 49.71875 77.644531 50.472656 L 64.144531 50.472656 C 60.902344 50.472656 58.261719 53.113281 58.261719 56.28125 L 58.261719 61.484375 C 58.261719 64.726562 60.902344 67.367188 64.144531 67.367188 L 68.21875 67.367188 L 68.21875 64.046875 L 64.144531 64.046875 C 62.714844 64.046875 61.582031 62.917969 61.582031 61.484375 L 61.582031 56.28125 C 61.582031 54.921875 62.714844 53.789062 64.144531 53.789062 Z M 64.144531 53.789062 "/>
<path style=" stroke:none;fill-rule:nonzero;fill:rgb(100%,100%,100%);fill-opacity:1;" d="M 95.824219 50.472656 L 91.75 50.472656 L 91.75 53.789062 L 95.824219 53.789062 C 97.257812 53.789062 98.386719 54.921875 98.386719 56.355469 L 98.386719 61.558594 C 98.386719 62.992188 97.257812 64.125 95.824219 64.125 L 82.324219 64.125 C 81.792969 63.371094 80.890625 62.839844 79.835938 62.839844 C 78.175781 62.839844 76.890625 64.199219 76.890625 65.78125 C 76.890625 67.441406 78.25 68.722656 79.835938 68.722656 C 80.890625 68.722656 81.71875 68.195312 82.324219 67.441406 L 95.824219 67.441406 C 99.066406 67.441406 101.628906 64.800781 101.628906 61.558594 L 101.628906 56.355469 C 101.707031 53.113281 99.066406 50.472656 95.824219 50.472656 Z M 95.824219 50.472656 "/>
<path style=" stroke:none;fill-rule:nonzero;fill:rgb(100%,100%,100%);fill-opacity:1;" d="M 74.855469 43.082031 C 74.855469 41.648438 75.988281 40.515625 77.421875 40.515625 L 82.625 40.515625 C 84.058594 40.515625 85.1875 41.648438 85.1875 43.082031 L 85.1875 56.582031 C 84.433594 57.109375 83.90625 58.015625 83.90625 58.996094 C 83.90625 60.65625 85.265625 61.9375 86.847656 61.9375 C 88.507812 61.9375 89.789062 60.578125 89.789062 58.996094 C 89.789062 57.9375 89.261719 57.035156 88.429688 56.507812 L 88.429688 43.003906 C 88.429688 39.761719 85.792969 37.199219 82.625 37.199219 L 77.421875 37.199219 C 74.175781 37.199219 71.539062 39.839844 71.539062 43.003906 L 71.539062 47.078125 L 74.855469 47.078125 Z M 74.855469 43.082031 "/>
<path style=" stroke:none;fill-rule:nonzero;fill:rgb(100%,100%,100%);fill-opacity:1;" d="M 85.113281 74.832031 C 85.113281 76.265625 83.980469 77.398438 82.546875 77.398438 L 77.34375 77.398438 C 75.910156 77.398438 74.78125 76.265625 74.78125 74.832031 L 74.78125 61.332031 C 75.535156 60.804688 76.0625 59.898438 76.0625 58.84375 C 76.0625 57.183594 74.703125 55.902344 73.121094 55.902344 C 71.460938 55.902344 70.179688 57.261719 70.179688 58.84375 C 70.179688 59.898438 70.707031 60.730469 71.460938 61.332031 L 71.460938 74.832031 C 71.460938 78.078125 74.101562 80.714844 77.34375 80.714844 L 82.546875 80.714844 C 85.792969 80.714844 88.355469 78.078125 88.355469 74.832031 L 88.355469 70.761719 L 85.039062 70.761719 Z M 85.113281 74.832031 "/>
<g clip-path="url(#clip2)" clip-rule="nonzero">
<path style=" stroke:none;fill-rule:nonzero;fill:rgb(13.72549%,21.568627%,42.745098%);fill-opacity:1;" d="M 37.183594 139.179688 C 36.988281 139.179688 36.601562 139.179688 36.023438 139.371094 C 35.636719 139.566406 35.25 139.566406 34.863281 139.566406 C 34.28125 139.566406 33.894531 139.371094 33.703125 139.179688 C 33.507812 138.984375 33.316406 138.597656 33.316406 138.210938 C 33.316406 137.824219 33.316406 137.246094 33.316406 136.46875 L 33.316406 127.574219 L 34.28125 127.574219 C 35.25 127.574219 36.023438 127.378906 36.410156 127.1875 C 36.988281 126.992188 37.183594 126.410156 37.183594 125.832031 C 37.183594 125.25 36.988281 124.863281 36.601562 124.671875 C 36.214844 124.476562 35.636719 124.285156 35.054688 124.285156 L 33.316406 124.285156 L 33.316406 120.996094 C 33.316406 120.222656 33.316406 119.640625 33.121094 119.0625 C 33.121094 118.675781 32.734375 118.289062 32.542969 117.902344 C 31.960938 117.515625 31.574219 117.320312 30.800781 117.320312 C 30.414062 117.320312 30.027344 117.515625 29.640625 117.707031 C 29.445312 117.902344 29.058594 118.09375 28.867188 118.480469 C 28.671875 118.675781 28.671875 119.0625 28.480469 119.640625 C 28.480469 120.027344 28.480469 120.609375 28.480469 121.382812 L 28.480469 124.285156 L 27.898438 124.285156 C 27.316406 124.285156 26.738281 124.476562 26.351562 124.671875 C 25.964844 124.863281 25.769531 125.445312 25.769531 126.023438 C 25.769531 126.605469 25.964844 126.992188 26.351562 127.1875 C 26.738281 127.574219 27.316406 127.765625 27.898438 127.765625 L 28.480469 127.765625 L 28.480469 136.859375 C 28.480469 138.40625 28.671875 139.566406 28.867188 140.339844 C 29.058594 141.113281 29.640625 141.886719 30.414062 142.46875 C 31.1875 143.046875 32.347656 143.242188 33.703125 143.242188 C 35.25 143.242188 36.410156 143.046875 37.378906 142.660156 C 38.152344 142.273438 38.539062 141.691406 38.539062 140.921875 C 38.539062 140.53125 38.34375 140.144531 38.152344 139.757812 C 37.765625 139.371094 37.570312 139.179688 37.183594 139.179688 Z M 37.183594 139.179688 "/>
</g>
<g clip-path="url(#clip3)" clip-rule="nonzero">
<path style=" stroke:none;fill-rule:nonzero;fill:rgb(13.72549%,21.568627%,42.745098%);fill-opacity:1;" d="M 60.203125 132.410156 C 59.429688 132.410156 59.042969 132.601562 58.65625 132.988281 C 58.269531 133.375 58.074219 133.957031 57.882812 134.730469 C 57.300781 136.082031 56.527344 137.246094 55.558594 138.019531 C 54.59375 138.792969 53.238281 139.179688 51.691406 139.179688 C 50.335938 139.179688 49.175781 138.792969 48.015625 138.210938 C 46.855469 137.632812 46.273438 136.664062 45.695312 135.308594 C 45.113281 133.957031 44.921875 132.214844 44.921875 130.085938 C 44.921875 127.1875 45.5 124.863281 46.855469 123.125 C 48.210938 121.578125 49.757812 120.609375 51.886719 120.609375 C 53.238281 120.609375 54.398438 120.996094 55.171875 121.578125 C 56.140625 122.15625 56.914062 123.125 57.496094 124.476562 C 57.882812 125.25 58.269531 125.832031 58.65625 126.023438 C 59.042969 126.21875 59.429688 126.410156 60.203125 126.410156 C 60.78125 126.410156 61.363281 126.21875 61.75 125.636719 C 62.136719 125.25 62.332031 124.671875 62.332031 124.089844 C 62.332031 122.929688 61.945312 121.769531 60.976562 120.609375 C 60.203125 119.449219 58.847656 118.289062 57.300781 117.515625 C 55.753906 117.128906 53.820312 116.738281 51.886719 116.738281 C 50.144531 116.738281 48.597656 117.128906 47.050781 117.707031 C 45.5 118.289062 44.339844 119.0625 43.179688 120.222656 C 42.019531 121.382812 41.246094 122.738281 40.472656 124.476562 C 39.890625 126.023438 39.699219 127.960938 39.699219 129.894531 C 39.699219 131.25 39.890625 132.410156 40.085938 133.570312 C 40.277344 134.730469 40.664062 135.695312 41.246094 136.664062 C 41.632812 137.632812 42.214844 138.597656 42.988281 139.371094 C 43.761719 140.339844 44.535156 140.921875 45.5 141.5 C 46.46875 142.082031 47.4375 142.46875 48.597656 142.660156 C 49.757812 142.855469 50.917969 143.046875 52.273438 143.046875 C 54.011719 143.046875 55.558594 142.855469 56.914062 142.273438 C 58.269531 141.691406 59.429688 140.921875 60.203125 140.144531 C 60.976562 139.371094 61.75 138.210938 62.136719 137.4375 C 62.523438 136.664062 62.523438 135.503906 62.523438 134.730469 C 62.523438 134.148438 62.332031 133.570312 61.945312 133.183594 C 61.363281 132.601562 60.78125 132.410156 60.203125 132.410156 Z M 60.203125 132.410156 "/>
</g>
<g clip-path="url(#clip4)" clip-rule="nonzero">
<path style=" stroke:none;fill-rule:nonzero;fill:rgb(13.72549%,21.568627%,42.745098%);fill-opacity:1;" d="M 69.101562 116.738281 C 68.328125 116.738281 67.746094 116.933594 67.359375 117.515625 C 66.972656 118.09375 66.78125 118.675781 66.78125 119.640625 L 66.78125 140.339844 C 66.78125 141.308594 66.972656 141.886719 67.359375 142.46875 C 67.746094 143.046875 68.328125 143.242188 69.101562 143.242188 C 69.875 143.242188 70.453125 143.046875 70.84375 142.46875 C 71.230469 142.082031 71.421875 141.308594 71.421875 140.339844 L 71.421875 119.640625 C 71.421875 118.675781 71.230469 117.902344 70.84375 117.515625 C 70.453125 117.128906 69.875 116.738281 69.101562 116.738281 Z M 69.101562 116.738281 "/>
</g>
<g clip-path="url(#clip5)" clip-rule="nonzero">
<path style=" stroke:none;fill-rule:nonzero;fill:rgb(13.72549%,21.568627%,42.745098%);fill-opacity:1;" d="M 78.773438 116.933594 C 78.191406 116.933594 77.613281 117.128906 77.03125 117.515625 C 76.644531 117.902344 76.257812 118.480469 76.257812 119.253906 C 76.257812 120.027344 76.453125 120.609375 77.03125 120.996094 C 77.417969 121.382812 78 121.578125 78.773438 121.578125 C 79.351562 121.578125 79.933594 121.382812 80.515625 120.996094 C 80.902344 120.609375 81.289062 120.027344 81.289062 119.253906 C 81.289062 118.480469 81.09375 117.902344 80.515625 117.515625 C 79.933594 117.128906 79.351562 116.933594 78.773438 116.933594 Z M 78.773438 116.933594 "/>
</g>
<g clip-path="url(#clip6)" clip-rule="nonzero">
<path style=" stroke:none;fill-rule:nonzero;fill:rgb(13.72549%,21.568627%,42.745098%);fill-opacity:1;" d="M 78.773438 123.898438 C 78 123.898438 77.417969 124.089844 77.03125 124.671875 C 76.644531 125.058594 76.453125 125.832031 76.453125 126.800781 L 76.453125 140.339844 C 76.453125 141.308594 76.644531 141.886719 77.03125 142.46875 C 77.417969 143.046875 78 143.242188 78.773438 143.242188 C 79.546875 143.242188 80.128906 143.046875 80.515625 142.46875 C 80.902344 141.886719 81.289062 141.308594 81.289062 140.339844 L 81.289062 126.605469 C 81.289062 125.832031 81.09375 125.058594 80.515625 124.671875 C 79.933594 124.285156 79.546875 123.898438 78.773438 123.898438 Z M 78.773438 123.898438 "/>
</g>
<g clip-path="url(#clip7)" clip-rule="nonzero">
<path style=" stroke:none;fill-rule:nonzero;fill:rgb(13.72549%,21.568627%,42.745098%);fill-opacity:1;" d="M 102.179688 126.992188 C 101.597656 126.023438 101.019531 125.25 100.050781 124.671875 C 99.082031 124.089844 97.921875 123.898438 96.761719 123.898438 C 95.410156 123.898438 94.25 124.089844 93.28125 124.671875 C 92.3125 125.25 91.347656 126.023438 90.574219 127.1875 L 90.574219 126.410156 C 90.574219 125.832031 90.378906 125.445312 90.1875 125.058594 C 89.992188 124.671875 89.796875 124.285156 89.410156 124.089844 C 89.023438 123.898438 88.636719 123.703125 88.25 123.703125 C 87.476562 123.703125 87.089844 123.898438 86.703125 124.285156 C 86.316406 124.671875 86.125 125.445312 86.125 126.21875 L 86.125 139.953125 C 86.125 140.921875 86.316406 141.5 86.703125 142.082031 C 87.089844 142.660156 87.671875 142.855469 88.445312 142.855469 C 89.21875 142.855469 89.796875 142.660156 90.1875 142.082031 C 90.574219 141.691406 90.765625 140.921875 90.765625 139.953125 L 90.765625 134.34375 C 90.765625 132.410156 90.960938 131.054688 91.152344 130.28125 C 91.539062 129.3125 91.925781 128.734375 92.699219 128.152344 C 93.472656 127.574219 94.25 127.378906 95.019531 127.378906 C 96.375 127.378906 97.148438 127.765625 97.535156 128.539062 C 97.921875 129.3125 98.117188 130.472656 98.117188 132.214844 L 98.117188 140.144531 C 98.117188 141.113281 98.308594 141.691406 98.695312 142.273438 C 99.082031 142.855469 99.664062 143.046875 100.4375 143.046875 C 101.210938 143.046875 101.792969 142.855469 102.179688 142.273438 C 102.566406 141.691406 102.757812 141.113281 102.757812 140.144531 L 102.757812 131.441406 C 102.757812 130.472656 102.757812 129.507812 102.566406 128.925781 C 102.757812 128.152344 102.371094 127.574219 102.179688 126.992188 Z M 102.179688 126.992188 "/>
</g>
<g clip-path="url(#clip8)" clip-rule="nonzero">
<path style=" stroke:none;fill-rule:nonzero;fill:rgb(13.72549%,21.568627%,42.745098%);fill-opacity:1;" d="M 110.109375 116.933594 C 109.53125 116.933594 108.949219 117.128906 108.371094 117.515625 C 107.980469 117.902344 107.59375 118.480469 107.59375 119.253906 C 107.59375 120.027344 107.789062 120.609375 108.371094 120.996094 C 108.753906 121.382812 109.335938 121.578125 110.109375 121.578125 C 110.691406 121.578125 111.269531 121.382812 111.851562 120.996094 C 112.238281 120.609375 112.625 120.027344 112.625 119.253906 C 112.625 118.480469 112.429688 117.902344 111.851562 117.515625 C 111.269531 117.128906 110.691406 116.933594 110.109375 116.933594 Z M 110.109375 116.933594 "/>
</g>
<g clip-path="url(#clip9)" clip-rule="nonzero">
<path style=" stroke:none;fill-rule:nonzero;fill:rgb(13.72549%,21.568627%,42.745098%);fill-opacity:1;" d="M 109.917969 123.898438 C 109.140625 123.898438 108.5625 124.089844 108.175781 124.671875 C 107.789062 125.058594 107.59375 125.832031 107.59375 126.800781 L 107.59375 140.339844 C 107.59375 141.308594 107.789062 141.886719 108.175781 142.46875 C 108.5625 143.046875 109.140625 143.242188 109.917969 143.242188 C 110.691406 143.242188 111.269531 143.046875 111.65625 142.46875 C 112.042969 141.886719 112.429688 141.308594 112.429688 140.339844 L 112.429688 126.605469 C 112.429688 125.832031 112.238281 125.058594 111.65625 124.671875 C 111.078125 124.285156 110.691406 123.898438 109.917969 123.898438 Z M 109.917969 123.898438 "/>
</g>
<g clip-path="url(#clip10)" clip-rule="nonzero">
<path style=" stroke:none;fill-rule:nonzero;fill:rgb(13.72549%,21.568627%,42.745098%);fill-opacity:1;" d="M 133.710938 135.890625 C 133.324219 135.503906 132.933594 135.308594 132.355469 135.308594 C 131.773438 135.308594 131.386719 135.503906 131.195312 135.695312 C 130.808594 136.082031 130.613281 136.472656 130.226562 136.859375 C 129.648438 137.824219 129.066406 138.40625 128.484375 138.792969 C 127.714844 139.179688 126.9375 139.371094 125.972656 139.371094 C 125.199219 139.371094 124.617188 139.179688 124.039062 138.984375 C 123.457031 138.792969 122.875 138.40625 122.488281 137.824219 C 122.101562 137.246094 121.714844 136.664062 121.523438 135.890625 C 121.328125 135.117188 121.136719 134.34375 121.136719 133.375 C 121.136719 131.441406 121.523438 129.894531 122.488281 128.925781 C 123.261719 127.765625 124.425781 127.1875 125.972656 127.1875 C 126.9375 127.1875 127.714844 127.378906 128.292969 127.765625 C 128.875 128.152344 129.453125 128.925781 130.035156 129.699219 C 130.421875 130.085938 130.613281 130.472656 131 130.667969 C 131.195312 130.859375 131.582031 131.054688 131.96875 131.054688 C 132.546875 131.054688 133.128906 130.859375 133.515625 130.472656 C 133.902344 130.472656 134.097656 129.894531 134.097656 129.3125 C 134.097656 128.734375 133.902344 128.152344 133.515625 127.574219 C 133.128906 126.992188 132.546875 126.410156 131.96875 125.832031 C 131.386719 125.25 130.421875 124.863281 129.261719 124.476562 C 128.292969 124.089844 127.132812 123.898438 125.777344 123.898438 C 123.84375 123.898438 122.101562 124.285156 120.75 125.058594 C 119.394531 125.832031 118.234375 126.992188 117.460938 128.539062 C 116.6875 130.085938 116.300781 131.828125 116.300781 133.761719 C 116.300781 136.664062 117.074219 138.984375 118.8125 140.726562 C 120.554688 142.46875 122.683594 143.242188 125.777344 143.242188 C 127.132812 143.242188 128.484375 143.046875 129.453125 142.660156 C 130.613281 142.273438 131.386719 141.886719 132.160156 141.113281 C 132.933594 140.339844 133.515625 139.953125 133.710938 139.179688 C 134.097656 138.597656 134.289062 137.824219 134.289062 137.246094 C 134.289062 136.859375 134.097656 136.277344 133.710938 135.890625 Z M 133.710938 135.890625 "/>
</g>
</g>
</svg>
